solid OpenSCAD_Model
  facet normal -1 0 0
    outer loop
      vertex 0 33 0
      vertex 0 30 5.8
      vertex 0 33 9
    endloop
  endfacet
  facet normal -1 0 0
    outer loop
      vertex 0 0 0
      vertex 0 30 5.8
      vertex 0 33 0
    endloop
  endfacet
  facet normal -1 -0 0
    outer loop
      vertex 0 30 5.8
      vertex 0 0 0
      vertex 0 0 5.8
    endloop
  endfacet
  facet normal -1 -0 0
    outer loop
      vertex 0 33 9
      vertex 0 30 5.8
      vertex 0 30 9
    endloop
  endfacet
  facet normal -0 0 1
    outer loop
      vertex 0 30 5.8
      vertex 8.8 0 5.8
      vertex 8.8 30 5.8
    endloop
  endfacet
  facet normal 0 0 1
    outer loop
      vertex 8.8 0 5.8
      vertex 0 30 5.8
      vertex 0 0 5.8
    endloop
  endfacet
  facet normal 1 0 0
    outer loop
      vertex 8.8 30 5.8
      vertex 8.8 33 9
      vertex 8.8 30 9
    endloop
  endfacet
  facet normal 1 0 0
    outer loop
      vertex 8.8 33 9
      vertex 8.8 30 5.8
      vertex 8.8 33 0
    endloop
  endfacet
  facet normal 1 0 0
    outer loop
      vertex 8.8 0 0
      vertex 8.8 30 5.8
      vertex 8.8 0 5.8
    endloop
  endfacet
  facet normal 1 0 0
    outer loop
      vertex 8.8 30 5.8
      vertex 8.8 0 0
      vertex 8.8 33 0
    endloop
  endfacet
  facet normal 0 -1 0
    outer loop
      vertex 0 30 5.8
      vertex 8.8 30 9
      vertex 0 30 9
    endloop
  endfacet
  facet normal 0 -1 -0
    outer loop
      vertex 8.8 30 9
      vertex 0 30 5.8
      vertex 8.8 30 5.8
    endloop
  endfacet
  facet normal 0 0 -1
    outer loop
      vertex 0 0 0
      vertex 8.8 33 0
      vertex 8.8 0 0
    endloop
  endfacet
  facet normal -0 0 -1
    outer loop
      vertex 8.8 33 0
      vertex 0 0 0
      vertex 0 33 0
    endloop
  endfacet
  facet normal 0 -1 0
    outer loop
      vertex 0 0 0
      vertex 8.8 0 5.8
      vertex 0 0 5.8
    endloop
  endfacet
  facet normal 0 -1 -0
    outer loop
      vertex 8.8 0 5.8
      vertex 0 0 0
      vertex 8.8 0 0
    endloop
  endfacet
  facet normal -0 0 1
    outer loop
      vertex 0 33 9
      vertex 8.8 30 9
      vertex 8.8 33 9
    endloop
  endfacet
  facet normal 0 0 1
    outer loop
      vertex 8.8 30 9
      vertex 0 33 9
      vertex 0 30 9
    endloop
  endfacet
  facet normal 0 1 -0
    outer loop
      vertex 8.8 33 0
      vertex 0 33 9
      vertex 8.8 33 9
    endloop
  endfacet
  facet normal 0 1 0
    outer loop
      vertex 0 33 9
      vertex 8.8 33 0
      vertex 0 33 0
    endloop
  endfacet
  facet normal -1 0 0
    outer loop
      vertex 20 33 0
      vertex 20 30 5.8
      vertex 20 33 9
    endloop
  endfacet
  facet normal -1 0 0
    outer loop
      vertex 20 0 0
      vertex 20 30 5.8
      vertex 20 33 0
    endloop
  endfacet
  facet normal -1 -0 0
    outer loop
      vertex 20 30 5.8
      vertex 20 0 0
      vertex 20 0 5.8
    endloop
  endfacet
  facet normal -1 -0 0
    outer loop
      vertex 20 33 9
      vertex 20 30 5.8
      vertex 20 30 9
    endloop
  endfacet
  facet normal -0 0 1
    outer loop
      vertex 20 30 5.8
      vertex 28.8 0 5.8
      vertex 28.8 30 5.8
    endloop
  endfacet
  facet normal 0 0 1
    outer loop
      vertex 28.8 0 5.8
      vertex 20 30 5.8
      vertex 20 0 5.8
    endloop
  endfacet
  facet normal 1 -0 0
    outer loop
      vertex 28.8 0 5.8
      vertex 28.8 30 2
      vertex 28.8 30 5.8
    endloop
  endfacet
  facet normal 1 0 0
    outer loop
      vertex 28.8 30 2
      vertex 28.8 0 5.8
      vertex 28.8 0 2
    endloop
  endfacet
  facet normal 1 0 0
    outer loop
      vertex 28.8 30 5.8
      vertex 28.8 33 9
      vertex 28.8 30 9
    endloop
  endfacet
  facet normal 1 0 0
    outer loop
      vertex 28.8 33 9
      vertex 28.8 30 5.8
      vertex 28.8 33 0
    endloop
  endfacet
  facet normal 1 -0 0
    outer loop
      vertex 28.8 30 2
      vertex 28.8 33 0
      vertex 28.8 30 5.8
    endloop
  endfacet
  facet normal 1 0 0
    outer loop
      vertex 28.8 33 0
      vertex 28.8 30 2
      vertex 28.8 30 0
    endloop
  endfacet
  facet normal 0 0 -1
    outer loop
      vertex 24 0 0
      vertex 20 0 0
      vertex 24 30 0
    endloop
  endfacet
  facet normal 0 0 -1
    outer loop
      vertex 24 30 0
      vertex 28.8 33 0
      vertex 28.8 30 0
    endloop
  endfacet
  facet normal 0 0 -1
    outer loop
      vertex 24 30 0
      vertex 20 33 0
      vertex 28.8 33 0
    endloop
  endfacet
  facet normal 0 0 -1
    outer loop
      vertex 20 33 0
      vertex 24 30 0
      vertex 20 0 0
    endloop
  endfacet
  facet normal 0 -1 0
    outer loop
      vertex 20 0 5.8
      vertex 24 0 2
      vertex 28.8 0 5.8
    endloop
  endfacet
  facet normal 0 -1 0
    outer loop
      vertex 20 0 0
      vertex 24 0 2
      vertex 20 0 5.8
    endloop
  endfacet
  facet normal 0 -1 -0
    outer loop
      vertex 24 0 2
      vertex 20 0 0
      vertex 24 0 0
    endloop
  endfacet
  facet normal 0 -1 -0
    outer loop
      vertex 28.8 0 5.8
      vertex 24 0 2
      vertex 28.8 0 2
    endloop
  endfacet
  facet normal 0 -1 0
    outer loop
      vertex 20 30 5.8
      vertex 28.8 30 9
      vertex 20 30 9
    endloop
  endfacet
  facet normal 0 -1 -0
    outer loop
      vertex 28.8 30 9
      vertex 20 30 5.8
      vertex 28.8 30 5.8
    endloop
  endfacet
  facet normal -0 0 1
    outer loop
      vertex 20 33 9
      vertex 28.8 30 9
      vertex 28.8 33 9
    endloop
  endfacet
  facet normal 0 0 1
    outer loop
      vertex 28.8 30 9
      vertex 20 33 9
      vertex 20 30 9
    endloop
  endfacet
  facet normal 0 1 -0
    outer loop
      vertex 28.8 33 0
      vertex 20 33 9
      vertex 28.8 33 9
    endloop
  endfacet
  facet normal 0 1 0
    outer loop
      vertex 20 33 9
      vertex 28.8 33 0
      vertex 20 33 0
    endloop
  endfacet
  facet normal 1 -0 0
    outer loop
      vertex 24 0 2
      vertex 24 30 0
      vertex 24 30 2
    endloop
  endfacet
  facet normal 1 0 0
    outer loop
      vertex 24 30 0
      vertex 24 0 2
      vertex 24 0 0
    endloop
  endfacet
  facet normal 0 0 -1
    outer loop
      vertex 24 0 2
      vertex 28.8 30 2
      vertex 28.8 0 2
    endloop
  endfacet
  facet normal -0 0 -1
    outer loop
      vertex 28.8 30 2
      vertex 24 0 2
      vertex 24 30 2
    endloop
  endfacet
  facet normal 0 -1 0
    outer loop
      vertex 24 30 0
      vertex 28.8 30 2
      vertex 24 30 2
    endloop
  endfacet
  facet normal 0 -1 -0
    outer loop
      vertex 28.8 30 2
      vertex 24 30 0
      vertex 28.8 30 0
    endloop
  endfacet
endsolid OpenSCAD_Model
