solid OpenSCAD_Model
  facet normal -1 0 0
    outer loop
      vertex 0 0 0
      vertex 0 18.5 25
      vertex 0 18.5 0
    endloop
  endfacet
  facet normal -1 -0 0
    outer loop
      vertex 0 18.5 25
      vertex 0 0 0
      vertex 0 0 25
    endloop
  endfacet
  facet normal -0 0 1
    outer loop
      vertex 89.5 11 25
      vertex 94.5 4.2 25
      vertex 94.5 18.5 25
    endloop
  endfacet
  facet normal -0 0 1
    outer loop
      vertex 89.5 6 25
      vertex 92.5 4.2 25
      vertex 89.5 11 25
    endloop
  endfacet
  facet normal 0 0 1
    outer loop
      vertex 94.5 4.2 25
      vertex 89.5 11 25
      vertex 92.5 4.2 25
    endloop
  endfacet
  facet normal 0 0 1
    outer loop
      vertex 94.5 18.5 25
      vertex 86.5 16.5 25
      vertex 89.5 11 25
    endloop
  endfacet
  facet normal 0 0 1
    outer loop
      vertex 94.5 18.5 25
      vertex 56 16.5 25
      vertex 86.5 16.5 25
    endloop
  endfacet
  facet normal 0 0 1
    outer loop
      vertex 56 16.5 25
      vertex 53 11 25
      vertex 56 13 25
    endloop
  endfacet
  facet normal 0 0 1
    outer loop
      vertex 53 11 25
      vertex 30.5 6.5 25
      vertex 53 6 25
    endloop
  endfacet
  facet normal 0 0 1
    outer loop
      vertex 56 16.5 25
      vertex 30.5 6.5 25
      vertex 53 11 25
    endloop
  endfacet
  facet normal 0 0 1
    outer loop
      vertex 0 18.5 25
      vertex 30.5 6.5 25
      vertex 56 16.5 25
    endloop
  endfacet
  facet normal -0 0 1
    outer loop
      vertex 0 18.5 25
      vertex 56 16.5 25
      vertex 94.5 18.5 25
    endloop
  endfacet
  facet normal 0 0 1
    outer loop
      vertex 30.5 6.5 25
      vertex 0 18.5 25
      vertex 5 6.5 25
    endloop
  endfacet
  facet normal 0 0 1
    outer loop
      vertex 0 0 25
      vertex 5 6.5 25
      vertex 0 18.5 25
    endloop
  endfacet
  facet normal 0 0 1
    outer loop
      vertex 5 6.5 25
      vertex 0 0 25
      vertex 5 0 25
    endloop
  endfacet
  facet normal -0 0 1
    outer loop
      vertex 92.5 2 25
      vertex 94.5 0 25
      vertex 94.5 2 25
    endloop
  endfacet
  facet normal 0 0 1
    outer loop
      vertex 92.5 4.2 25
      vertex 89.5 6 25
      vertex 92.5 2 25
    endloop
  endfacet
  facet normal -0 0 1
    outer loop
      vertex 53 6 25
      vertex 92.5 2 25
      vertex 89.5 6 25
    endloop
  endfacet
  facet normal 0 0 1
    outer loop
      vertex 53 6 25
      vertex 94.5 0 25
      vertex 92.5 2 25
    endloop
  endfacet
  facet normal 0 0 1
    outer loop
      vertex 30.5 0 25
      vertex 53 6 25
      vertex 30.5 6.5 25
    endloop
  endfacet
  facet normal 0 0 1
    outer loop
      vertex 53 6 25
      vertex 30.5 0 25
      vertex 94.5 0 25
    endloop
  endfacet
  facet normal -0 0 1
    outer loop
      vertex 86.5 13 25
      vertex 89.5 11 25
      vertex 86.5 16.5 25
    endloop
  endfacet
  facet normal -0 0 1
    outer loop
      vertex 56 13 25
      vertex 89.5 11 25
      vertex 86.5 13 25
    endloop
  endfacet
  facet normal 0 0 1
    outer loop
      vertex 89.5 11 25
      vertex 56 13 25
      vertex 53 11 25
    endloop
  endfacet
  facet normal 0 0 1
    outer loop
      vertex 144 18.5 25
      vertex 141 4.2 25
      vertex 144 0 25
    endloop
  endfacet
  facet normal -0 0 1
    outer loop
      vertex 139 18.5 25
      vertex 141 4.2 25
      vertex 144 18.5 25
    endloop
  endfacet
  facet normal 0 0 1
    outer loop
      vertex 141 4.2 25
      vertex 139 18.5 25
      vertex 139 4.2 25
    endloop
  endfacet
  facet normal -0 0 1
    outer loop
      vertex 141 2 25
      vertex 144 0 25
      vertex 141 4.2 25
    endloop
  endfacet
  facet normal 0 0 1
    outer loop
      vertex 139 0 25
      vertex 141 2 25
      vertex 139 2 25
    endloop
  endfacet
  facet normal 0 0 1
    outer loop
      vertex 141 2 25
      vertex 139 0 25
      vertex 144 0 25
    endloop
  endfacet
  facet normal 1 -0 0
    outer loop
      vertex 144 0 25
      vertex 144 18.5 0
      vertex 144 18.5 25
    endloop
  endfacet
  facet normal 1 0 0
    outer loop
      vertex 144 18.5 0
      vertex 144 0 25
      vertex 144 0 0
    endloop
  endfacet
  facet normal 0 0 -1
    outer loop
      vertex 141 4.2 0
      vertex 144 0 0
      vertex 141 2 0
    endloop
  endfacet
  facet normal 0 0 -1
    outer loop
      vertex 144 0 0
      vertex 92.5 2 0
      vertex 141 2 0
    endloop
  endfacet
  facet normal 0 0 -1
    outer loop
      vertex 92.5 2 0
      vertex 86.5 13 0
      vertex 92.5 4.2 0
    endloop
  endfacet
  facet normal 0 0 -1
    outer loop
      vertex 92.5 2 0
      vertex 56 13 0
      vertex 86.5 13 0
    endloop
  endfacet
  facet normal 0 0 -1
    outer loop
      vertex 30.5 6.5 0
      vertex 56 13 0
      vertex 30.5 2 0
    endloop
  endfacet
  facet normal 0 0 -1
    outer loop
      vertex 92.5 2 0
      vertex 30.5 2 0
      vertex 56 13 0
    endloop
  endfacet
  facet normal 0 0 -1
    outer loop
      vertex 0 0 0
      vertex 92.5 2 0
      vertex 144 0 0
    endloop
  endfacet
  facet normal -0 0 -1
    outer loop
      vertex 92.5 2 0
      vertex 0 0 0
      vertex 30.5 2 0
    endloop
  endfacet
  facet normal -0 0 -1
    outer loop
      vertex 5 2 0
      vertex 0 0 0
      vertex 5 6.5 0
    endloop
  endfacet
  facet normal -0 0 -1
    outer loop
      vertex 30.5 2 0
      vertex 0 0 0
      vertex 5 2 0
    endloop
  endfacet
  facet normal 0 0 -1
    outer loop
      vertex 144 0 0
      vertex 141 4.2 0
      vertex 144 18.5 0
    endloop
  endfacet
  facet normal 0 0 -1
    outer loop
      vertex 92.5 4.2 0
      vertex 144 18.5 0
      vertex 141 4.2 0
    endloop
  endfacet
  facet normal 0 0 -1
    outer loop
      vertex 86.5 16.5 0
      vertex 92.5 4.2 0
      vertex 86.5 13 0
    endloop
  endfacet
  facet normal 0 0 -1
    outer loop
      vertex 92.5 4.2 0
      vertex 86.5 16.5 0
      vertex 144 18.5 0
    endloop
  endfacet
  facet normal 0 0 -1
    outer loop
      vertex 56 16.5 0
      vertex 144 18.5 0
      vertex 86.5 16.5 0
    endloop
  endfacet
  facet normal -0 0 -1
    outer loop
      vertex 56 13 0
      vertex 30.5 6.5 0
      vertex 56 16.5 0
    endloop
  endfacet
  facet normal 0 0 -1
    outer loop
      vertex 0 18.5 0
      vertex 30.5 6.5 0
      vertex 5 6.5 0
    endloop
  endfacet
  facet normal 0 0 -1
    outer loop
      vertex 56 16.5 0
      vertex 0 18.5 0
      vertex 144 18.5 0
    endloop
  endfacet
  facet normal 0 0 -1
    outer loop
      vertex 30.5 6.5 0
      vertex 0 18.5 0
      vertex 56 16.5 0
    endloop
  endfacet
  facet normal 0 0 -1
    outer loop
      vertex 0 18.5 0
      vertex 5 6.5 0
      vertex 0 0 0
    endloop
  endfacet
  facet normal 0 -1 0
    outer loop
      vertex 0 0 25
      vertex 5 0 11
      vertex 5 0 25
    endloop
  endfacet
  facet normal 0 -1 0
    outer loop
      vertex 0 0 0
      vertex 30.5 0 11
      vertex 5 0 11
    endloop
  endfacet
  facet normal 0 -1 0
    outer loop
      vertex 144 0 0
      vertex 94.5 0 4
      vertex 0 0 0
    endloop
  endfacet
  facet normal 0 -1 -0
    outer loop
      vertex 30.5 0 11
      vertex 0 0 0
      vertex 94.5 0 4
    endloop
  endfacet
  facet normal 0 -1 0
    outer loop
      vertex 0 0 0
      vertex 5 0 11
      vertex 0 0 25
    endloop
  endfacet
  facet normal 0 -1 0
    outer loop
      vertex 30.5 0 11
      vertex 94.5 0 25
      vertex 30.5 0 25
    endloop
  endfacet
  facet normal 0 -1 -0
    outer loop
      vertex 94.5 0 25
      vertex 30.5 0 11
      vertex 94.5 0 4
    endloop
  endfacet
  facet normal 0 -1 0
    outer loop
      vertex 139 0 4
      vertex 144 0 25
      vertex 139 0 25
    endloop
  endfacet
  facet normal 0 -1 0
    outer loop
      vertex 139 0 4
      vertex 144 0 0
      vertex 144 0 25
    endloop
  endfacet
  facet normal 0 -1 0
    outer loop
      vertex 94.5 0 4
      vertex 144 0 0
      vertex 139 0 4
    endloop
  endfacet
  facet normal 0 1 0
    outer loop
      vertex 144 18.5 25
      vertex 139 18.5 4
      vertex 139 18.5 25
    endloop
  endfacet
  facet normal 0 1 0
    outer loop
      vertex 139 18.5 4
      vertex 144 18.5 0
      vertex 94.5 18.5 4
    endloop
  endfacet
  facet normal 0 1 -0
    outer loop
      vertex 144 18.5 0
      vertex 139 18.5 4
      vertex 144 18.5 25
    endloop
  endfacet
  facet normal 0 1 -0
    outer loop
      vertex 94.5 18.5 4
      vertex 0 18.5 25
      vertex 94.5 18.5 25
    endloop
  endfacet
  facet normal 0 1 0
    outer loop
      vertex 94.5 18.5 4
      vertex 0 18.5 0
      vertex 0 18.5 25
    endloop
  endfacet
  facet normal 0 1 0
    outer loop
      vertex 0 18.5 0
      vertex 94.5 18.5 4
      vertex 144 18.5 0
    endloop
  endfacet
  facet normal 1 0 0
    outer loop
      vertex 5 6.5 25
      vertex 5 2 11
      vertex 5 6.5 0
    endloop
  endfacet
  facet normal 1 -0 0
    outer loop
      vertex 5 0 25
      vertex 5 2 11
      vertex 5 6.5 25
    endloop
  endfacet
  facet normal 1 0 0
    outer loop
      vertex 5 2 11
      vertex 5 0 25
      vertex 5 0 11
    endloop
  endfacet
  facet normal 1 0 0
    outer loop
      vertex 5 6.5 0
      vertex 5 2 11
      vertex 5 2 0
    endloop
  endfacet
  facet normal -1 0 0
    outer loop
      vertex 30.5 2 11
      vertex 30.5 6.5 0
      vertex 30.5 2 0
    endloop
  endfacet
  facet normal -1 0 0
    outer loop
      vertex 30.5 6.5 0
      vertex 30.5 2 11
      vertex 30.5 6.5 25
    endloop
  endfacet
  facet normal -1 0 0
    outer loop
      vertex 30.5 0 25
      vertex 30.5 2 11
      vertex 30.5 0 11
    endloop
  endfacet
  facet normal -1 0 0
    outer loop
      vertex 30.5 2 11
      vertex 30.5 0 25
      vertex 30.5 6.5 25
    endloop
  endfacet
  facet normal 0 -1 0
    outer loop
      vertex 5 6.5 0
      vertex 30.5 6.5 25
      vertex 5 6.5 25
    endloop
  endfacet
  facet normal 0 -1 -0
    outer loop
      vertex 30.5 6.5 25
      vertex 5 6.5 0
      vertex 30.5 6.5 0
    endloop
  endfacet
  facet normal 0 1 -0
    outer loop
      vertex 30.5 2 0
      vertex 5 2 11
      vertex 30.5 2 11
    endloop
  endfacet
  facet normal 0 1 0
    outer loop
      vertex 5 2 11
      vertex 30.5 2 0
      vertex 5 2 0
    endloop
  endfacet
  facet normal -0 0 1
    outer loop
      vertex 5 2 11
      vertex 30.5 0 11
      vertex 30.5 2 11
    endloop
  endfacet
  facet normal 0 0 1
    outer loop
      vertex 30.5 0 11
      vertex 5 2 11
      vertex 5 0 11
    endloop
  endfacet
  facet normal 1 -0 0
    outer loop
      vertex 56 13 25
      vertex 56 16.5 0
      vertex 56 16.5 25
    endloop
  endfacet
  facet normal 1 0 0
    outer loop
      vertex 56 16.5 0
      vertex 56 13 25
      vertex 56 13 0
    endloop
  endfacet
  facet normal -1 0 0
    outer loop
      vertex 86.5 13 0
      vertex 86.5 16.5 25
      vertex 86.5 16.5 0
    endloop
  endfacet
  facet normal -1 -0 0
    outer loop
      vertex 86.5 16.5 25
      vertex 86.5 13 0
      vertex 86.5 13 25
    endloop
  endfacet
  facet normal 0 1 -0
    outer loop
      vertex 86.5 13 0
      vertex 56 13 25
      vertex 86.5 13 25
    endloop
  endfacet
  facet normal 0 1 0
    outer loop
      vertex 56 13 25
      vertex 86.5 13 0
      vertex 56 13 0
    endloop
  endfacet
  facet normal 0 -1 0
    outer loop
      vertex 56 16.5 0
      vertex 86.5 16.5 25
      vertex 56 16.5 25
    endloop
  endfacet
  facet normal 0 -1 -0
    outer loop
      vertex 86.5 16.5 25
      vertex 56 16.5 0
      vertex 86.5 16.5 0
    endloop
  endfacet
  facet normal 1 -0 0
    outer loop
      vertex 53 6 25
      vertex 53 11 8
      vertex 53 11 25
    endloop
  endfacet
  facet normal 1 0 0
    outer loop
      vertex 53 11 8
      vertex 53 6 25
      vertex 53 6 8
    endloop
  endfacet
  facet normal -1 0 0
    outer loop
      vertex 89.5 6 8
      vertex 89.5 11 25
      vertex 89.5 11 8
    endloop
  endfacet
  facet normal -1 -0 0
    outer loop
      vertex 89.5 11 25
      vertex 89.5 6 8
      vertex 89.5 6 25
    endloop
  endfacet
  facet normal 0 -1 0
    outer loop
      vertex 53 11 8
      vertex 89.5 11 25
      vertex 53 11 25
    endloop
  endfacet
  facet normal 0 -1 -0
    outer loop
      vertex 89.5 11 25
      vertex 53 11 8
      vertex 89.5 11 8
    endloop
  endfacet
  facet normal -0 0 1
    outer loop
      vertex 53 11 8
      vertex 89.5 6 8
      vertex 89.5 11 8
    endloop
  endfacet
  facet normal 0 0 1
    outer loop
      vertex 89.5 6 8
      vertex 53 11 8
      vertex 53 6 8
    endloop
  endfacet
  facet normal 0 1 -0
    outer loop
      vertex 89.5 6 8
      vertex 53 6 25
      vertex 89.5 6 25
    endloop
  endfacet
  facet normal 0 1 0
    outer loop
      vertex 53 6 25
      vertex 89.5 6 8
      vertex 53 6 8
    endloop
  endfacet
  facet normal 1 -0 0
    outer loop
      vertex 92.5 2 25
      vertex 92.5 4.2 0
      vertex 92.5 4.2 25
    endloop
  endfacet
  facet normal 1 0 0
    outer loop
      vertex 92.5 4.2 0
      vertex 92.5 2 25
      vertex 92.5 2 0
    endloop
  endfacet
  facet normal -1 0 0
    outer loop
      vertex 141 2 0
      vertex 141 4.2 25
      vertex 141 4.2 0
    endloop
  endfacet
  facet normal -1 -0 0
    outer loop
      vertex 141 4.2 25
      vertex 141 2 0
      vertex 141 2 25
    endloop
  endfacet
  facet normal 0 1 0
    outer loop
      vertex 141 2 25
      vertex 139 2 4
      vertex 139 2 25
    endloop
  endfacet
  facet normal 0 1 0
    outer loop
      vertex 139 2 4
      vertex 141 2 0
      vertex 94.5 2 4
    endloop
  endfacet
  facet normal 0 1 -0
    outer loop
      vertex 141 2 0
      vertex 139 2 4
      vertex 141 2 25
    endloop
  endfacet
  facet normal 0 1 -0
    outer loop
      vertex 94.5 2 4
      vertex 92.5 2 25
      vertex 94.5 2 25
    endloop
  endfacet
  facet normal 0 1 0
    outer loop
      vertex 94.5 2 4
      vertex 92.5 2 0
      vertex 92.5 2 25
    endloop
  endfacet
  facet normal 0 1 0
    outer loop
      vertex 92.5 2 0
      vertex 94.5 2 4
      vertex 141 2 0
    endloop
  endfacet
  facet normal 0 -1 0
    outer loop
      vertex 92.5 4.2 25
      vertex 94.5 4.2 4
      vertex 94.5 4.2 25
    endloop
  endfacet
  facet normal 0 -1 -0
    outer loop
      vertex 94.5 4.2 4
      vertex 92.5 4.2 0
      vertex 139 4.2 4
    endloop
  endfacet
  facet normal 0 -1 0
    outer loop
      vertex 92.5 4.2 0
      vertex 94.5 4.2 4
      vertex 92.5 4.2 25
    endloop
  endfacet
  facet normal 0 -1 0
    outer loop
      vertex 139 4.2 4
      vertex 141 4.2 25
      vertex 139 4.2 25
    endloop
  endfacet
  facet normal 0 -1 0
    outer loop
      vertex 139 4.2 4
      vertex 141 4.2 0
      vertex 141 4.2 25
    endloop
  endfacet
  facet normal 0 -1 0
    outer loop
      vertex 141 4.2 0
      vertex 139 4.2 4
      vertex 92.5 4.2 0
    endloop
  endfacet
  facet normal 1 -0 0
    outer loop
      vertex 94.5 4.2 25
      vertex 94.5 18.5 4
      vertex 94.5 18.5 25
    endloop
  endfacet
  facet normal 1 0 0
    outer loop
      vertex 94.5 18.5 4
      vertex 94.5 4.2 25
      vertex 94.5 4.2 4
    endloop
  endfacet
  facet normal 1 -0 0
    outer loop
      vertex 94.5 0 25
      vertex 94.5 2 4
      vertex 94.5 2 25
    endloop
  endfacet
  facet normal 1 0 0
    outer loop
      vertex 94.5 2 4
      vertex 94.5 0 25
      vertex 94.5 0 4
    endloop
  endfacet
  facet normal -1 0 0
    outer loop
      vertex 139 4.2 4
      vertex 139 18.5 25
      vertex 139 18.5 4
    endloop
  endfacet
  facet normal -1 -0 0
    outer loop
      vertex 139 18.5 25
      vertex 139 4.2 4
      vertex 139 4.2 25
    endloop
  endfacet
  facet normal -1 0 0
    outer loop
      vertex 139 0 4
      vertex 139 2 25
      vertex 139 2 4
    endloop
  endfacet
  facet normal -1 -0 0
    outer loop
      vertex 139 2 25
      vertex 139 0 4
      vertex 139 0 25
    endloop
  endfacet
  facet normal -0 0 1
    outer loop
      vertex 94.5 2 4
      vertex 139 0 4
      vertex 139 2 4
    endloop
  endfacet
  facet normal 0 0 1
    outer loop
      vertex 139 0 4
      vertex 94.5 2 4
      vertex 94.5 0 4
    endloop
  endfacet
  facet normal -0 0 1
    outer loop
      vertex 94.5 18.5 4
      vertex 139 4.2 4
      vertex 139 18.5 4
    endloop
  endfacet
  facet normal 0 0 1
    outer loop
      vertex 139 4.2 4
      vertex 94.5 18.5 4
      vertex 94.5 4.2 4
    endloop
  endfacet
endsolid OpenSCAD_Model
